<?xml version="1.0" standalone="no"?>
<!DOCTYPE svg PUBLIC "-//W3C//DTD SVG 20010904//EN"
 "http://www.w3.org/TR/2001/REC-SVG-20010904/DTD/svg10.dtd">
<svg version="1.0" xmlns="http://www.w3.org/2000/svg"
 width="378" height="198" viewBox="0 0 512.000000 512.000000"
 preserveAspectRatio="xMidYMid meet">

<g transform="translate(-300.000000,400.000000) scale(0.100000,-0.100000)"
fill="#000000" stroke="none">
<path d="M647 3534 c-4 -4 -7 -256 -7 -561 l0 -553 -260 0 -260 0 0 -30 0 -30
260 0 260 0 0 -130 0 -131 63 3 62 3 5 125 5 125 62 3 63 3 2 -263 3 -263 60
0 60 0 5 260 5 260 1938 3 1937 2 0 30 0 30 -1930 0 c-1897 0 -1929 0 -1940
19 -6 13 -10 165 -10 426 l0 406 -62 -3 -63 -3 -3 -422 -2 -423 -65 0 -65 0
-2 558 -3 557 -55 3 c-31 2 -59 0 -63 -4z"/>
<path d="M1222 2683 c3 -168 5 -198 18 -198 12 0 16 18 20 85 l5 85 63 3 62 3
0 -84 c0 -68 3 -86 16 -91 9 -3 20 -4 25 0 5 3 9 93 9 200 l0 194 -25 0 c-25
0 -25 -1 -25 -85 l0 -85 -65 0 -65 0 0 85 c0 79 -2 85 -20 85 -20 0 -20 -5
-18 -197z"/>
<path d="M1532 2868 c-8 -8 -12 -63 -12 -183 0 -120 4 -175 12 -183 16 -16
180 -16 196 0 8 8 12 63 12 183 0 120 -4 175 -12 183 -16 16 -180 16 -196 0z
m146 -36 c9 -7 12 -44 10 -153 l-3 -144 -48 -3 c-74 -5 -77 0 -77 152 0 89 4
136 12 144 14 14 86 16 106 4z"/>
<path d="M1820 2861 c0 -16 8 -20 38 -23 l37 -3 5 -175 c4 -147 7 -175 20
-175 13 0 16 28 20 175 l5 175 38 3 c29 3 37 7 37 23 0 18 -8 19 -100 19 -92
0 -100 -1 -100 -19z"/>
<path d="M2100 2685 c0 -149 3 -195 13 -196 122 -13 167 -7 167 21 0 18 -7 20
-65 20 l-65 0 0 65 0 65 55 0 c52 0 55 1 55 25 0 24 -3 25 -55 25 l-56 0 3 63
3 62 63 3 c54 3 62 6 62 22 0 18 -7 20 -90 20 l-90 0 0 -195z"/>
<path d="M2360 2686 c0 -221 -9 -203 96 -198 55 3 64 6 64 23 0 16 -7 19 -55
19 l-55 0 0 175 0 175 -25 0 -25 0 0 -194z"/>
<path d="M1248 2260 c-15 -9 -18 -26 -18 -99 0 -107 6 -114 101 -119 l69 -4 0
-59 0 -59 -59 0 c-58 0 -60 1 -63 28 -2 19 -9 28 -25 30 -21 3 -23 -1 -23 -40
0 -24 5 -49 12 -56 8 -8 45 -12 100 -12 76 0 89 2 98 19 15 29 13 176 -3 189
-7 6 -44 12 -82 14 l-70 3 -3 63 -3 62 60 0 c58 0 60 -1 63 -27 2 -20 9 -29
26 -31 19 -3 22 1 22 35 0 62 -9 68 -102 71 -47 1 -91 -2 -100 -8z"/>
<path d="M1581 2088 c-23 -101 -45 -191 -47 -200 -4 -14 1 -18 25 -18 23 0 30
5 33 23 3 20 9 22 65 25 60 3 63 2 69 -23 5 -19 13 -25 34 -25 l27 0 -46 198
-47 197 -35 3 -35 3 -43 -183z m103 2 c10 -47 20 -93 22 -102 5 -16 -2 -18
-46 -18 -51 0 -52 0 -46 28 26 135 41 191 46 185 4 -5 15 -46 24 -93z"/>
<path d="M1880 2070 l0 -200 25 0 25 0 1 128 0 127 65 -127 c50 -100 69 -128
84 -128 19 0 20 7 20 201 l0 200 -22 -3 c-22 -3 -23 -8 -28 -127 l-5 -125 -62
127 c-49 100 -67 127 -83 127 -19 0 -20 -6 -20 -200z"/>
<path d="M2370 2070 c0 -193 1 -200 20 -200 18 0 20 7 20 85 l0 84 58 3 c50 3
57 6 60 26 3 20 0 22 -52 22 l-55 0 -6 44 c-12 77 -9 81 68 84 64 3 67 4 67
27 0 25 -1 25 -90 25 l-90 0 0 -200z"/>
<path d="M2640 2070 l0 -200 25 0 c25 0 25 1 25 85 0 61 3 85 13 85 6 0 35
-37 63 -83 40 -66 56 -83 77 -85 15 -2 27 0 27 5 0 5 -21 42 -46 82 -25 40
-43 75 -40 78 3 3 20 8 38 12 l33 7 3 94 c4 119 2 120 -125 120 l-93 0 0 -200z
m174 134 c10 -27 7 -89 -6 -102 -7 -7 -36 -12 -65 -12 l-53 0 0 65 0 65 59 0
c44 0 60 -4 65 -16z"/>
<path d="M3045 2248 c-3 -13 -23 -97 -45 -187 -22 -91 -40 -170 -40 -178 0 -7
11 -13 25 -13 18 0 26 7 31 25 6 23 11 25 65 25 54 0 60 -2 69 -25 7 -18 17
-25 35 -25 14 0 25 3 25 8 0 4 -21 94 -46 200 l-46 192 -34 0 c-27 0 -35 -5
-39 -22z m65 -154 c28 -126 28 -124 -25 -124 -58 0 -57 -8 -10 199 8 34 13 24
35 -75z"/>
<path d="M3307 2264 c-4 -4 -7 -94 -7 -201 l0 -193 25 0 25 0 0 127 c0 151 1
151 80 -10 43 -87 60 -113 78 -115 l22 -3 0 200 0 201 -25 0 -24 0 -3 -127 -3
-128 -65 125 c-59 114 -84 143 -103 124z"/>
<path d="M3638 2260 c-16 -10 -18 -30 -18 -188 0 -125 4 -182 12 -190 8 -8 45
-12 100 -12 101 0 108 5 108 89 0 48 -2 51 -25 51 -23 0 -25 -4 -25 -45 l0
-45 -59 0 c-44 0 -60 4 -65 16 -9 24 -7 257 3 272 5 9 25 12 62 10 l54 -3 5
-45 c4 -37 9 -46 28 -48 21 -3 22 0 22 55 0 32 -5 65 -10 73 -11 18 -166 26
-192 10z"/>
<path d="M3930 2071 l0 -201 25 0 25 0 -2 198 c-3 196 -3 197 -25 200 l-23 3
0 -200z"/>
<path d="M4088 2260 c-15 -9 -18 -26 -18 -105 0 -61 4 -96 12 -101 6 -4 44 -9
85 -12 l73 -5 0 -58 0 -59 -60 0 c-59 0 -61 1 -66 30 -5 21 -12 30 -25 30 -16
0 -19 -8 -19 -43 0 -24 5 -48 12 -55 7 -7 44 -12 94 -12 107 0 114 7 114 106
0 107 -6 114 -88 114 -40 0 -73 5 -80 12 -14 14 -16 86 -3 106 5 9 25 12 62
10 51 -3 54 -5 57 -30 3 -22 9 -28 28 -28 21 0 24 4 24 38 0 61 -9 67 -102 70
-47 1 -91 -2 -100 -8z"/>
<path d="M4396 2254 c-13 -13 -16 -44 -16 -180 0 -95 4 -174 10 -185 9 -17 22
-19 98 -19 55 0 92 4 100 12 7 7 12 38 12 70 0 55 -1 58 -25 58 -23 0 -25 -4
-25 -45 l0 -45 -60 0 -60 0 0 150 0 150 59 0 60 0 3 -47 c3 -41 6 -48 26 -51
21 -3 22 0 22 62 0 80 -8 86 -114 86 -54 0 -79 -4 -90 -16z"/>
<path d="M4720 2263 c-8 -3 -18 -11 -22 -17 -4 -6 -8 -86 -8 -178 0 -203 -3
-198 114 -198 50 0 87 5 94 12 8 8 12 65 12 190 0 165 -1 178 -19 188 -20 10
-145 13 -171 3z m145 -65 c3 -13 4 -79 3 -148 l-3 -125 -60 0 -60 0 -3 134
c-1 74 0 141 2 148 4 8 24 13 60 13 49 0 56 -3 61 -22z"/>
</g>
</svg>
